<svg width="37" height="23" fill="none" xmlns="http://www.w3.org/2000/svg">
  <g clip-path="url(#a)" fill="#FE617C">
    <path d="m18.6 9.4-1.5 3.3h.8l.3-.7h1.6l.3.7h.9l-1.5-3.3h-.9Zm-.1 2 .5-1.3.6 1.3h-1.1Zm-7.4.9c0-1.3-.4-2.2-1-3-.5-.6-1.4-1-2.5-1a3 3 0 0 0-1.7.4c-.5.3-.9.6-1 1h-.6V2.9h6.5V.2H1.1v12.2h3l.3-.9c.1-.2.4-.4.7-.5l1-.2c.6 0 1 .1 1.3.4.3.3.5.6.5 1.2a31.1 31.1 0 0 1 0 5.5c0 .6-.2 1-.6 1.3-.3.3-.7.4-1.4.4-.6 0-1.1-.1-1.4-.4-.3-.3-.5-.7-.5-1.3v-3.4H.8a26 26 0 0 0 0 3c0 1.7.4 2.8 1.3 3.5.8.7 2 1 4 1 1 0 2 0 2.7-.4.7-.3 1.2-.8 1.6-1.4a9 9 0 0 0 .7-2.6 38.6 38.6 0 0 0 0-5.3Zm19.3-.7-2-2.2h-.7v3.3h.8v-2.2l2 2.2h.7V9.4h-.8v2.2Zm-1.5-4V4c0-1 .7-1.6 1.9-1.6s1.8.6 1.8 1.6l.1 4.3H36V4.5c-.1-1.5-.6-2.6-1.5-3.3-.8-.8-2-1.2-3.6-1.2s-3 .4-3.9 1.2c-.9.7-1.3 1.8-1.4 3.3v3.8h3.2v-.7Zm-12.4 0V4c0-1 .7-1.6 1.9-1.6s1.8.6 1.8 1.6l.1 4.3h3.2V4.5c-.1-1.5-.6-2.6-1.4-3.3C21.2.4 20 0 18.4 0s-2.8.4-3.7 1.2c-.9.7-1.3 1.8-1.4 3.3v3.8h3.2v-.7Zm10 1.8h-.8v3.3h.8V9.4Zm6.1 8.6c0 1.1-.7 1.6-1.8 1.6-1.2 0-1.8-.5-1.9-1.5v-4.3h-3.2v3.8c0 1.4.5 2.5 1.4 3.3.8.8 2 1.2 3.7 1.2 1.6 0 2.8-.4 3.7-1.2.8-.8 1.3-1.9 1.3-3.3v-3.8h-3l-.2 4.3Zm3.4-7.6-.5-.6-.6-.3-.7-.1h-.8a1.8 1.8 0 0 0-1 1l-.1.6a1.6 1.6 0 0 0 .5 1.2l.6.4.8.1.7-.1a1.8 1.8 0 0 0 1-.9l.2-.7c0-.2 0-.4-.2-.6Zm-.8 1a1 1 0 0 1-.6.6l-.4.1a1.1 1.1 0 0 1-1-.6 1 1 0 0 1 0-.9l.2-.3.4-.2a1.1 1.1 0 0 1 .8 0c.1 0 .2 0 .3.2l.3.3v.9Zm-11-.4-.3-.2h-.4l-.4-.2-.3-.1V10h.7a3.2 3.2 0 0 1 .8.3l.3-.6-.6-.3h-.8a2 2 0 0 0-.7 0 1 1 0 0 0-.5.4l-.1.5v.4l.3.3.4.2h.4l.4.2.3.1v.5l-.5.1h-.4l-.4-.2-.4-.3-.3.6.4.3a3 3 0 0 0 1.1.2l.7-.1c.2 0 .4-.2.5-.3.2-.2.2-.4.2-.6v-.4l-.4-.3Zm-9.9 1.6a2 2 0 0 0 1.7-.2c.2 0 .3-.1.4-.3l-.4-.4c-.2 0-.3.2-.5.3H15a1.1 1.1 0 0 1-.7-.2 1 1 0 0 1-.3-.8v-.4l.3-.3.3-.2a1.1 1.1 0 0 1 1 0l.4.3.4-.5-.4-.3-.5-.2a2.1 2.1 0 0 0-1.8.4l-.4.6-.2.6a1.6 1.6 0 0 0 .6 1.2c.1.2.3.3.6.4Zm5.9 5.4c0 1.1-.6 1.6-1.8 1.6-1.2 0-1.8-.5-1.8-1.5l-.1-3.3v-1h-3.2v3.8c0 1.4.5 2.5 1.4 3.3.9.8 2 1.2 3.7 1.2 1.6 0 2.8-.4 3.7-1.2.8-.8 1.3-1.9 1.3-3.3l.1-3.3v-.5h-3.2V18Z"/>
  </g>
  <defs>
    <clipPath id="a">
      <path fill="#fff" transform="translate(.7)" d="M0 0h35.5v22.1H0z"/>
    </clipPath>
  </defs>
</svg>
