<svg width="147" height="27" fill="none" xmlns="http://www.w3.org/2000/svg">
  <g clip-path="url(#a)">
    <path d="m46.4 9.7 1.2-2.4s-1.2-1-3.5-1a7.8 7.8 0 0 0-7.5 8.2c0 6 5.5 6.5 9 4.8l-.5-2.6c-1.1.4-2.3.6-3.5.6-3.4 0-2.2-8.3 2.1-8.3 2 0 2.6.7 2.6.7m11.3-2.3-1.3 2.5S55.3 9 53 9s-3 2.1-.7 2.7c2.2.5 4.3 1.8 4.3 4.1s-1.7 4.3-5.5 4.3-4.8-1.3-4.8-1.3l1-2.3a9 9 0 0 0 3.9.9c1.4 0 2.3-.3 2.3-1.2 0-1-.6-1.4-1.7-1.7-1.2-.3-5-1.3-3.9-4.8s5-4.3 9.6-2.3m9.8 2.3L68.7 7s-1.3-.7-3.6-.7c-2.2 0-6.9 1-7.4 8-.6 6.9 7.5 6.4 10 4.5l1-6.6h-4.3l-1 2.7h2l-.2 1.7s-.4.6-2.1.6c-3.6 0-3.2-8.2 1.6-8.2 2.2 0 2.7.6 2.7.6m7.2 7.9c-3.8 0-2.3-8.5 1.9-8.5 4 0 2.4 8.5-1.9 8.5Zm1.9-11.2c-5.5 0-7 6.1-7 8 0 2 .5 5.8 4.9 5.8s7-3.8 7-8c0-3.8-1.6-5.8-5-5.8Z" fill="#fff"/>
    <path d="M137.7 7h9.3l-1 2.6h-5.5L140 12h4.7l-.5 2.7h-4.6l-.5 2.8h6.2l-.5 2.6h-9.3l2.2-13ZM86.1 7h9.2l-.9 2.6h-5.6l-.4 2.4H93l-.6 2.7H88l-.5 2.8h6.2l-.5 2.6h-9.3l2.3-13Zm30.8 4.6c-.3 1.8-2.5 1.7-2.5 1.7h-1.5l.6-3.6h2c.2 0 1.7 0 1.4 1.9M115.8 7h-5l-2.2 13.1h3.1l.7-4h1.8s5 .3 5.8-4.6c.6-3.7-2.5-4.5-4.2-4.5m16.4 4.6c-.4 1.4-2.5 1.3-2.5 1.3h-1.5l.6-3.2h1.9c.3 0 1.8.1 1.5 1.9m.6 3s2.8-.9 2.8-4c0-3-2.5-3.6-3.5-3.6h-5.9L124 20h3.1l.8-4.6h2s1.4 1.3 1.7 4.5h3s-.1-4-1.8-5.5M125 7l-2.4 13.2h-3L121.7 7h3.2ZM94 20l2.4-13h4.2l1 6.8 3.6-6.8h4.3l-2.2 13h-3.1l1.4-8-3.2 5.8h-2.6l-1.2-6.4-1.4 8.6h-3.1Z" fill="#E9B10E"/>
    <path d="M27 13.5a13.5 13.5 0 1 1-27 .2 13.5 13.5 0 0 1 27-.2Z" fill="#363332"/>
    <path d="M24.2 12.8a11.5 11.5 0 1 1-23 .2 11.5 11.5 0 0 1 23-.2Z" fill="#E9B10E"/>
    <path d="M21.7 12a10.3 10.3 0 1 1-20.5.2 10.3 10.3 0 0 1 20.5-.1Z" fill="#fff"/>
    <path d="m3.1 8 3.2-2.5A2 2 0 0 1 7.5 5h4a.7.7 0 0 1 .6.5l1.7 6-4.1 3.3-3.9-.9a1.4 1.4 0 0 1-1-.8L3 8.8A.7.7 0 0 1 3 8Z" fill="#E9B10E"/>
    <path d="m3.6 8.7 4 .2a1 1 0 0 1 .8.6l1.5 4.3a.3.3 0 0 1-.4.5l-3.4-.8a1.3 1.3 0 0 1-1-.8L3.6 8.9a.2.2 0 0 1 0-.2h.1Zm0-.6 2.7-2c.5-.4 1-.7 1.7-.7h3.2a.2.2 0 0 1 .2.2.2.2 0 0 1-.1.1L8.7 8.2a1.3 1.3 0 0 1-1 .4l-4-.2a.2.2 0 0 1 0-.3Zm5.4.3L11.6 6a.2.2 0 0 1 .2 0l1.2 4a1.4 1.4 0 0 1-.3 1.2l-2.2 2.7a.2.2 0 0 1-.3 0L8.8 9.5a1 1 0 0 1 .2-1Z" fill="#363332"/>
    <path d="M7.7 7.2c.3-.2.5-.4.4-.6 0-.2-.4-.2-.7 0-.3.1-.5.4-.4.6h.7ZM6.4 13c.2-.2.1-.5-.1-.7-.2-.3-.6-.4-.7-.2-.1.1 0 .5.1.7.3.3.6.3.7.2Zm1.4-2.4c.1-.2 0-.5-.2-.7-.2-.2-.5-.3-.6-.2-.2.2-.1.5.1.7.2.3.5.3.7.2Zm3 2.2a.5.5 0 0 0 .3-.7c0-.4-.3-.6-.6-.6a.5.5 0 0 0-.3.7c0 .4.3.6.5.6Zm1.6-1.9a.5.5 0 0 0 .3-.7c0-.3-.3-.6-.5-.5a.5.5 0 0 0-.4.7c0 .3.3.5.6.5Zm-1.3-.4a.5.5 0 0 0 .4-.7c-.1-.3-.3-.6-.6-.5a.5.5 0 0 0-.3.7c0 .3.3.5.5.5ZM9.7 10a.5.5 0 0 0 .4-.7c0-.3-.3-.6-.6-.5a.5.5 0 0 0-.3.7c0 .3.3.5.5.5Zm1.8-1.8a.5.5 0 0 0 .4-.7c0-.4-.3-.6-.6-.6a.5.5 0 0 0-.3.7c0 .4.3.6.6.6Z" fill="#fff"/>
    <path d="m9 9.3 4.8-.6c.5 0 1 0 1.3.3l4 2.6a.7.7 0 0 1 .4.7L17.7 18a1.4 1.4 0 0 1-.8.9l-4.7 1.6a.7.7 0 0 1-.7-.1l-3.4-3.5a2 2 0 0 1-.5-1.8l.8-5.1a.7.7 0 0 1 .6-.6Z" fill="#E9B10E"/>
    <path d="m14.4 13.4 4.2-.9a.2.2 0 0 1 .2.2l-1.4 4.7a1.3 1.3 0 0 1-.9.9l-4 1.4a.2.2 0 0 1-.2 0v-.2l1.3-5.3a1 1 0 0 1 .8-.8ZM9.7 9.7l4.3-.5c.3 0 .5 0 .8.2l3.5 2.2a.3.3 0 0 1 .1.4.3.3 0 0 1-.2.2l-4 .8a1.3 1.3 0 0 1-1-.2l-3.7-2.5a.3.3 0 0 1 .2-.6Zm-.7.7 3.8 2.6a1 1 0 0 1 .3 1l-1.3 5.5a.2.2 0 0 1-.3 0l-3-2.8a2 2 0 0 1-.5-1.8l.8-4.4a.2.2 0 0 1 .2-.2Z" fill="#363332"/>
    <path d="M13.8 12.3c.4 0 .7 0 .8-.3 0-.2-.3-.4-.7-.4-.5 0-.8 0-.8.2s.3.4.7.5Zm.1-1c.4 0 .8 0 .8-.3 0-.2-.3-.4-.7-.4-.4 0-.7 0-.8.2 0 .2.3.4.7.5Zm3 .7c.3 0 .7 0 .7-.3 0-.2-.3-.4-.7-.4-.4-.1-.7 0-.8.2 0 .2.3.4.7.5ZM11 10.6c.4 0 .8 0 .8-.2s-.3-.5-.7-.5c-.4 0-.7 0-.8.2 0 .2.3.5.7.5Zm3-.2c.4 0 .8-.1.8-.3 0-.2-.3-.4-.7-.5-.4 0-.8.1-.8.3 0 .2.3.4.7.5Zm-4.6 2.4c.2 0 .4-.3.4-.7 0-.4-.2-.7-.5-.7-.2 0-.4.4-.4.7 0 .4.2.7.5.7Zm2.3 1.8c.3 0 .5-.4.5-.7 0-.4-.3-.7-.5-.7-.3 0-.5.3-.5.7 0 .4.3.7.5.7Zm-2.6 0c.3 0 .5-.4.4-.8 0-.3-.2-.6-.4-.6-.3 0-.5.3-.5.7 0 .3.3.7.5.6Zm2.3 1.8c.2 0 .4-.3.4-.7 0-.3-.2-.6-.5-.6-.2 0-.4.3-.4.7 0 .3.2.7.5.6Zm-2.6-.2c.3 0 .5-.3.5-.7 0-.4-.3-.7-.5-.7-.3 0-.5.3-.5.7 0 .4.3.7.5.7Zm2.2 2c.3 0 .5-.3.5-.6 0-.4-.2-.7-.5-.7s-.4.3-.4.7c0 .4.2.7.4.7Zm3-3c.3.2.7 0 .9-.3a.6.6 0 0 0 0-.9.7.7 0 0 0-.9.4c-.2.3-.2.7 0 .9Zm-.7 3.4c.2.2.6 0 .8-.3a.6.6 0 0 0 0-.9c-.3-.2-.7 0-.9.3-.2.4-.2.8 0 1Zm3.7-4c.2 0 .6 0 .8-.4.2-.4.2-.7 0-.9a.7.7 0 0 0-.9.4c-.2.3-.2.7 0 .8Zm-1 3.2c.3.2.6 0 .9-.3a.6.6 0 0 0-.1-1c-.2 0-.6 0-.8.4a.6.6 0 0 0 0 1Z" fill="#fff"/>
  </g>
  <defs>
    <clipPath id="a">
      <path fill="#fff" d="M0 0h147v27H0z"/>
    </clipPath>
  </defs>
</svg>
