<svg width="95" height="20" fill="none" xmlns="http://www.w3.org/2000/svg">
  <path d="M27.6 14.3h5v1.8h-7V7.3h6.8V9h-4.8v1.8h4.6v1.6h-4.6v2Zm15.1-3.9c.5.5.7 1.1.7 2V16h-2v-3.5c0-.4 0-.7-.3-.9a1 1 0 0 0-.7-.3 1 1 0 0 0-.8.3c-.2.3-.3.6-.3 1V16h-2v-3.5c0-.4-.1-.7-.3-.9a.9.9 0 0 0-.7-.3 1 1 0 0 0-.8.3c-.2.3-.3.6-.3 1V16h-2V9.8h1.7l.1.7a2.2 2.2 0 0 1 1.8-.8c.4 0 .8 0 1.1.3.3.1.6.4.8.7.5-.7 1.2-1 2.1-1 .8 0 1.5.2 2 .7Zm6.6-.3c.5.3.8.7 1.1 1.2.3.5.4 1 .4 1.7 0 .6-.1 1.2-.4 1.7a2.8 2.8 0 0 1-2.6 1.5c-.8 0-1.5-.2-2-.7v3.3h-2v-9h1.7l.2.8c.5-.6 1.2-.9 2-.9a3 3 0 0 1 1.6.4Zm-1 4c.4-.3.5-.7.5-1.1 0-.5-.1-.9-.4-1.2-.3-.3-.7-.4-1.1-.4-.5 0-.8.1-1 .4-.4.3-.5.7-.5 1.2 0 .4.1.8.4 1.1.3.3.7.4 1 .4.5 0 .9-.1 1.2-.4Zm5-4.2h-2V16h2V9.9Zm5.3 0c.3 0 .5.2.7.4l-.8 1.5-.5-.3h-.5c-.4 0-.7.1-1 .4-.2.2-.4.6-.4 1.2v3h-2V9.9H56l.1.7a2 2 0 0 1 1.7-.9c.3 0 .6 0 .9.2Zm5.4.2c.5.3 1 .6 1.2 1 .3.6.4 1 .4 1.7v.8h-4.7c0 .3.2.5.5.7.3.2.7.3 1.1.3l1-.1.7-.4 1 1.1c-.3.3-.7.6-1.2.8l-1.6.2a4 4 0 0 1-1.9-.4c-.5-.2-1-.6-1.2-1.1-.3-.5-.4-1-.4-1.7s.1-1.2.4-1.7a3 3 0 0 1 1.2-1.2c.5-.3 1-.4 1.8-.4a4 4 0 0 1 1.7.4Zm-2.7 1.5c-.2.2-.4.5-.4.8h2.8c0-.3-.2-.6-.4-.8-.3-.2-.6-.3-1-.3s-.7 0-1 .3Z" fill="#fff"/>
  <path d="M72.3 7.8c.7.4 1.2.9 1.6 1.5.4.7.6 1.5.6 2.4 0 .9-.2 1.6-.6 2.3-.4.7-.9 1.2-1.6 1.5-.7.4-1.5.6-2.4.6h-3.7V7.3H70c1 0 1.7.1 2.4.5Zm-.6 5.8c.5-.5.7-1.1.7-2 0-.5-.1-1-.3-1.3-.2-.4-.5-.7-.9-1l-1.3-.2h-1.6v5.2H70c.7 0 1.3-.3 1.8-.7Zm7.7-3.7c.3 0 .5.2.8.4l-.9 1.5-.5-.3h-.5c-.4 0-.7.1-1 .4-.2.2-.3.6-.3 1.2v3h-2V9.9h1.7l.2.7a2 2 0 0 1 1.6-.9c.3 0 .6 0 .9.2Zm1.9 5.9a3 3 0 0 1-1.2-1.1c-.3-.5-.4-1-.4-1.7s.1-1.2.4-1.7c.3-.5.7-.9 1.2-1.2.5-.2 1.1-.4 1.8-.4a4 4 0 0 1 1.9.4c.5.3.9.7 1.2 1.2.2.5.4 1 .4 1.7 0 .6-.2 1.2-.4 1.7a3 3 0 0 1-1.2 1.1 4 4 0 0 1-1.9.4c-.7 0-1.3-.1-1.8-.4Zm2.9-1.7c.3-.3.4-.7.4-1.1 0-.5-.1-.9-.4-1.2-.3-.3-.6-.4-1-.4-.5 0-.9.1-1.1.4-.3.3-.4.7-.4 1.2 0 .4 0 .8.4 1.1.2.3.6.4 1 .4.5 0 .8-.1 1-.4Zm8.4-4c.5.3.8.7 1 1.2.3.5.5 1 .5 1.7 0 .6-.2 1.2-.4 1.7l-1 1.1a3 3 0 0 1-1.6.4c-.8 0-1.5-.2-2-.7v3.3h-2v-9h1.7l.2.8c.5-.6 1.2-.9 2-.9a3 3 0 0 1 1.6.4Zm-1 4c.3-.3.5-.7.5-1.1 0-.5-.2-.9-.4-1.2-.3-.3-.7-.4-1.1-.4-.5 0-.8.1-1.1.4-.3.3-.4.7-.4 1.2 0 .4.1.8.4 1.1.3.3.6.4 1 .4.5 0 .9-.1 1.2-.4Z" fill="#6925FF"/>
  <path fill-rule="evenodd" clip-rule="evenodd" d="m19.2 6.4-.5-.1V8L17 7.6V5.9l-1.6-.4v1.7l-1.7-.4V5L12 4.7v14.5l5.9-.7a2 2 0 0 0 1.8-2V7c0-.2-.2-.5-.5-.6Z" fill="#6925FF"/>
  <path fill-rule="evenodd" clip-rule="evenodd" d="m4.8 6.4.5-.1V8L7 7.6V5.9l1.6-.4v1.7l1.7-.4V5l1.7-.4v14.5l-5.9-.7a2 2 0 0 1-1.8-2V7c0-.2.3-.5.5-.6Z" fill="#4A17BA"/>
  <path fill-rule="evenodd" clip-rule="evenodd" d="M11.8 0v4.5h.4V0h-.4Z" fill="#6925FF"/>
  <path d="M50.6 7.4c.8-.3 1.3-.8 1.5-1.6h.3c.2.8.8 1.3 1.6 1.6.1 0 .1.2 0 .2-.8.2-1.4.8-1.6 1.6h-.3c-.2-.8-.7-1.4-1.5-1.6-.2 0-.2-.2 0-.2Z" fill="#6925FF"/>
  <path d="M27.6 14.3h5v1.8h-7V7.3h6.8V9h-4.8v1.8h4.6v1.6h-4.6v2Zm15.1-3.9c.5.5.7 1.1.7 2V16h-2v-3.5c0-.4 0-.7-.3-.9a1 1 0 0 0-.7-.3 1 1 0 0 0-.8.3c-.2.3-.3.6-.3 1V16h-2v-3.5c0-.4-.1-.7-.3-.9a.9.9 0 0 0-.7-.3 1 1 0 0 0-.8.3c-.2.3-.3.6-.3 1V16h-2V9.8h1.7l.1.7a2.2 2.2 0 0 1 1.8-.8c.4 0 .8 0 1.1.3.3.1.6.4.8.7.5-.7 1.2-1 2.1-1 .8 0 1.5.2 2 .7Zm6.6-.3c.5.3.8.7 1.1 1.2.3.5.4 1 .4 1.7 0 .6-.1 1.2-.4 1.7a2.8 2.8 0 0 1-2.6 1.5c-.8 0-1.5-.2-2-.7v3.3h-2v-9h1.7l.2.8c.5-.6 1.2-.9 2-.9a3 3 0 0 1 1.6.4Zm-1 4c.4-.3.5-.7.5-1.1 0-.5-.1-.9-.4-1.2-.3-.3-.7-.4-1.1-.4-.5 0-.8.1-1 .4-.4.3-.5.7-.5 1.2 0 .4.1.8.4 1.1.3.3.7.4 1 .4.5 0 .9-.1 1.2-.4Zm5-4.2h-2V16h2V9.9Zm5.3 0c.3 0 .5.2.7.4l-.8 1.5-.5-.3h-.5c-.4 0-.7.1-1 .4-.2.2-.4.6-.4 1.2v3h-2V9.9H56l.1.7a2 2 0 0 1 1.7-.9c.3 0 .6 0 .9.2Zm5.4.2c.5.3 1 .6 1.2 1 .3.6.4 1 .4 1.7v.8h-4.7c0 .3.2.5.5.7.3.2.7.3 1.1.3l1-.1.7-.4 1 1.1c-.3.3-.7.6-1.2.8l-1.6.2a4 4 0 0 1-1.9-.4c-.5-.2-1-.6-1.2-1.1-.3-.5-.4-1-.4-1.7s.1-1.2.4-1.7a3 3 0 0 1 1.2-1.2c.5-.3 1-.4 1.8-.4a4 4 0 0 1 1.7.4Zm-2.7 1.5c-.2.2-.4.5-.4.8h2.8c0-.3-.2-.6-.4-.8-.3-.2-.6-.3-1-.3s-.7 0-1 .3Z" fill="#fff"/>
  <path d="M72.3 7.8c.7.4 1.2.9 1.6 1.5.4.7.6 1.5.6 2.4 0 .9-.2 1.6-.6 2.3-.4.7-.9 1.2-1.6 1.5-.7.4-1.5.6-2.4.6h-3.7V7.3H70c1 0 1.7.1 2.4.5Zm-.6 5.8c.5-.5.7-1.1.7-2 0-.5-.1-1-.3-1.3-.2-.4-.5-.7-.9-1l-1.3-.2h-1.6v5.2H70c.7 0 1.3-.3 1.8-.7Zm7.7-3.7c.3 0 .5.2.8.4l-.9 1.5-.5-.3h-.5c-.4 0-.7.1-1 .4-.2.2-.3.6-.3 1.2v3h-2V9.9h1.7l.1.7c.5-.6 1-.9 1.7-.9.3 0 .6 0 .9.2Zm1.9 5.9a3 3 0 0 1-1.2-1.1c-.3-.5-.4-1-.4-1.7s.1-1.2.4-1.7c.3-.5.7-.9 1.2-1.2.5-.2 1.1-.4 1.8-.4a4 4 0 0 1 1.9.4c.5.3.9.7 1.2 1.2.2.5.4 1 .4 1.7 0 .6-.2 1.2-.4 1.7a3 3 0 0 1-1.2 1.1 4 4 0 0 1-1.9.4c-.7 0-1.3-.1-1.8-.4Zm2.9-1.7c.3-.3.4-.7.4-1.1 0-.5-.1-.9-.4-1.2-.3-.3-.6-.4-1-.4-.5 0-.9.1-1.1.4-.3.3-.4.7-.4 1.2 0 .4 0 .8.4 1.1.2.3.6.4 1 .4.5 0 .8-.1 1-.4Zm8.4-4c.5.3.8.7 1 1.2.3.5.5 1 .5 1.7 0 .6-.2 1.2-.4 1.7l-1 1.1a3 3 0 0 1-1.6.4c-.8 0-1.5-.2-2-.7v3.3h-2v-9h1.7l.2.8c.5-.6 1.2-.9 2-.9a3 3 0 0 1 1.6.4Zm-1 4c.3-.3.5-.7.5-1.1 0-.5-.2-.9-.4-1.2-.3-.3-.7-.4-1.1-.4-.5 0-.8.1-1.1.4-.3.3-.4.7-.4 1.2 0 .4.1.8.4 1.1.3.3.6.4 1 .4.5 0 .9-.1 1.2-.4Zm-41-6.7c.8-.3 1.3-.8 1.5-1.6h.3c.2.8.8 1.3 1.6 1.6.1 0 .1.2 0 .2-.8.2-1.4.8-1.6 1.6h-.3c-.2-.8-.7-1.4-1.5-1.6-.2 0-.2-.2 0-.2Zm-46.9-3c.3 0 .5-.3.6-.6h.1c0 .3.3.5.6.6v.1c-.3 0-.5.3-.6.6h-.1c0-.3-.3-.5-.6-.6v-.1Z" fill="#6925FF"/>
  <path d="M0 9.2c.6-.2 1-.5 1.2-1 0-.2.1-.2.1 0 .2.5.6.8 1.1 1 .1 0 .1.1 0 .2-.5.1-.9.5-1 1 0 .1-.2.1-.2 0-.2-.5-.6-.9-1.1-1-.1 0-.1-.2 0-.2Zm20.3-4.8a.8.8 0 0 1-.6-.6c-.2.3-.4.5-.7.6v.1c.3 0 .5.3.6.6h.1c.1-.3.3-.5.6-.6v-.1Z" fill="#fff"/>
  <path d="M24 9.2c-.6-.2-1-.5-1.1-1 0-.2-.2-.2-.2 0-.2.5-.6.8-1.1 1v.2c.5.1 1 .5 1 1h.3c.1-.5.5-.9 1-1 .1 0 .1-.2 0-.2Z" fill="#6925FF"/>
  <path fill-rule="evenodd" clip-rule="evenodd" d="M12.2 0c-2.4-.4-2 1.5-3.8.2 1.1 2.8 2.4.8 3.8 2V0Z" fill="#4A17BA"/>
</svg>
