<svg width="113" height="29" fill="none" xmlns="http://www.w3.org/2000/svg">
  <path d="M28.6 14.8c0-4 3-7.4 7.2-7.3 1 0 2 .1 2.8.5.7.1 1.2.4 1.8.8v2.4c-.5-.5-1-.8-1.7-1-.9-.4-1.9-.6-2.9-.6-3.1 0-5 2.3-5 5.2 0 3 2 5.3 4.7 5.3 1.2 0 2.5-.5 3.5-1.3v-3h-3.9v-2.2h6v8.2H39v-.7c-1 .7-2.3 1-3.5 1a6.3 6.3 0 0 1-5-2 7.2 7.2 0 0 1-1.9-5.3Zm14.1 1.7c0-3.1 2.2-5.6 5.2-5.6 1.2 0 2.4.4 3.3 1.3v-1h2.1v10.6h-2v-1c-.5.4-1 .8-1.6 1a4 4 0 0 1-1.8.4c-3 0-5.2-2.6-5.2-5.7Zm8.7 0c0-2.3-1.5-3.7-3.3-3.7a3.1 3.1 0 0 0-2.4 1.1 3.6 3.6 0 0 0-.9 2.6 3.8 3.8 0 0 0 1 2.6c.2.3.6.6 1 .8.4.2.8.3 1.3.3 1.8 0 3.3-1.4 3.3-3.7ZM71 15.3v6.5h-2.1v-6.3c0-1.7-.6-2.7-2-2.7-1.2 0-2.4 1-2.4 3v6h-2.1v-6.3c0-1.7-.6-2.7-2-2.7-1 0-2.3.9-2.4 2.6v6.4h-2V11.2h2v1.2c.1-.2.8-1.6 2.8-1.6 1.4 0 2.5.6 3 1.8.5-1 1.6-1.8 3.5-1.8 2.2 0 3.7 1.6 3.7 4.5Zm1.5 1.2c0-3.1 2.1-5.6 5.2-5.6 1.2 0 2.4.4 3.3 1.3V7.8l2-.3v14.3h-2v-1a5 5 0 0 1-1.5 1 4 4 0 0 1-1.8.4c-3 0-5.2-2.6-5.2-5.7Zm8.6 0c0-2.3-1.4-3.7-3.3-3.7a3.2 3.2 0 0 0-2.3 1.1 3.6 3.6 0 0 0-1 2.6 3.8 3.8 0 0 0 1 2.6l1 .8c.4.2.9.3 1.3.3 1.9 0 3.3-1.4 3.3-3.7Zm3.7 0a5.5 5.5 0 0 1 5.4-5.6c1.4 0 2.8.6 3.8 1.6a6 6 0 0 1 1.6 4 6 6 0 0 1-1.6 4 5.2 5.2 0 0 1-7.5 0 6 6 0 0 1-1.7-4Zm8.9 0c0-.7-.2-1.4-.6-2a5 5 0 0 0-1.5-1.4c-.7-.3-1.4-.4-2-.2-.7.1-1.3.5-1.8 1s-.8 1.1-1 1.9a4 4 0 0 0 .3 2 3.3 3.3 0 0 0 5.6 1.2 3.6 3.6 0 0 0 1-2.5Zm18.8-1.2v6.5h-2v-6.3c0-1.7-.6-2.7-2-2.7-1.2 0-2.5 1-2.5 3v6h-2v-6.3c0-1.7-.6-2.7-2-2.7-1.1 0-2.3.9-2.4 2.6v6.4h-2.1V11.2h2v1.2c.2-.2.8-1.6 2.8-1.6 1.4 0 2.5.6 3.2 1.8.4-1 1.5-1.8 3.3-1.8 2.3 0 3.7 1.6 3.7 4.5Z" fill="#fff"/>
  <path d="M10.2 14.8 3.8 18l-.3.2v7l.3.3 6.4 3.3h.5V14.7c-.1 0-.3 0-.5.2ZM10.5.9l-3 1.6v4.3l-3.6 2V4.2L.7 6l-.3.3v9l.2.3a.6.6 0 0 0 .6 0l9-4.7.5-.2V.8h-.2Z" fill="#00FF86"/>
  <path d="M10.7 14.6c.2 0 .4 0 .6.2l6.4 3.3.3.2v7l-.3.3-6.4 3.3h-.6V14.7Zm9.6 1-9-4.7-.6-.2V.8h.3l3 1.7v4.3l3.6 2V4.2L20.8 6l.3.3V15l-.1.5-.5.2h-.2Z" fill="#01D370"/>
</svg>
