<svg width="86" height="17" fill="none" xmlns="http://www.w3.org/2000/svg">
  <path d="M14.1 10c-.3 2-.8 3-3.3 3h-.1l2.7 3.5c0 .2 0 .4-.2.4H10c-.3 0-.4 0-.6-.3l-2.3-3.5H4.5l-.6 3.4c0 .3-.2.4-.5.4H.8c-.3 0-.4-.1-.4-.4l2-11.3c0-.2.2-.4.5-.4h9.3c1.7 0 2.4.6 2.4 2v.8L14 10ZM5.4 7.6l-.5 2.8h4.6c1 0 1.1-.2 1.3-1l.1-.8v-.5c0-.4-.2-.5-1-.5H5.5Zm19 7.3h-5.7l-1 1.6c0 .3-.3.4-.6.4h-2.9c-.2 0-.3-.2-.1-.4l6.6-11.3c.2-.2.3-.3.7-.3h3.9c.3 0 .4 0 .4.3l2.8 11.3c0 .2-.1.4-.3.4h-3c-.2 0-.4-.1-.4-.4l-.4-1.6Zm-4.2-2.7h3.7l-1-4.6-2.7 4.6Zm13.1 4.3c0 .3-.2.4-.5.4h-2.6c-.3 0-.4-.1-.4-.4l2-11.3c0-.2.2-.3.5-.3h2.6c.3 0 .4 0 .4.3l-2 11.3ZM49.5 10c.3 0 .4.2.3.5l-1 6.1c0 .3-.2.4-.5.4H44c-.3 0-.5 0-.5-.3l-3-9-1.6 9c0 .2-.2.3-.5.3H36c-.2 0-.4-.1-.3-.4l2-11.3c0-.2.2-.4.4-.4h4.4c.2 0 .4.1.5.4l3 9.1.8-4c0-.2.1-.4.4-.4h2.3Zm8.4 0h-.4a1 1 0 0 0-.7.8l-.6 3.4v.9c0 1.3.8 1.9 2.4 1.9h7.1c2.6 0 3-.7 3.3-2.7l.7-4c0-.2-.1-.3-.4-.3h-6.1c-.3 0-.4.2-.5.4l-.2 1.5c-.1.2 0 .4.3.4h3l-.2 1.4c0 .4-.2.5-.6.5h-4c-.9 0-1.2 0-1.2-.6l.1-.4.4-2.4c0-.4-.2-.8-.6-.8H58Zm3.4-4.8a.3.3 0 0 1 .3-.2h6.2c1.7 0 2.6.3 2.4 1.6v.7a.5.5 0 0 1-.5.4h-8.5a.3.3 0 0 1-.3-.3l.4-2.2Zm24 2.1a.5.5 0 0 1-.5.4h-7.6c-1 0-1.3.2-1.5 1.1L75 13v.5c0 .5.2.6 1.1.6h4c.3 0 .5-.1.6-.5l.2-1.5h-3c-.3 0-.4 0-.4-.3l.3-1.5c0-.2.2-.4.5-.4h6.1c.3 0 .4.2.3.4l-.7 3.9c-.3 2-.6 2.7-3.2 2.7h-7.1c-1.7 0-2.5-.6-2.5-2l.1-.8 1.2-6.5c.3-2 .8-2.8 3.3-2.8h7c1.8 0 2.7.4 2.5 1.8v.6Z" fill="#F0F2F5"/>
  <path d="M49.2 7c-.3 0-.6-.3-.5-.6V6l.1-.3.5-.2 1.6-.3c2.8-.2 2.5-1.5 3-2.6l.6-2c0-.2.2-.4.5-.4h.5c.2 0 .4.2.3.4v2c-.2 1.6 0 2.3 1.6 2.5l1.7.4s.5 0 .5.5l-.2.5a.4.4 0 0 1-.4.4l-1.7.2c-1.7.2-2.1 0-2.6 2l-.7 2.5c0 .3-.3.4-.5.4h-.7c-.3 0-.5-.1-.4-.4l.2-2.4c0-1.6-.5-1.8-1.8-2L49.2 7Z" fill="#F6AF16"/>
</svg>
