<svg width="78" height="20" fill="none" xmlns="http://www.w3.org/2000/svg">
  <path d="M10.6.1h1.2l-.3 1.3c-1.5-.2-3 .1-4.3.7l-.7-1a10 10 0 0 1 4-1Zm2.9 1.7L14 .6a10 10 0 0 1 4.6 3.2l-1 .6a8.7 8.7 0 0 0-4-2.6ZM1.6 6.3A10 10 0 0 1 4.8 2l.6 1.1c-1.1 1-2 2-2.6 3.4l-1.2-.3ZM10 2.4a7.6 7.6 0 1 1 1.6 15.2A7.6 7.6 0 0 1 10 2.4Zm-.7 1.3a6 6 0 0 0-3.1 1.7 6 6 0 0 0-1.8 3.3v1.8A6 6 0 0 0 5.6 14l.7.8a6 6 0 0 0 3 1.6h2l-.5-2-.5-1-.1-.1c-.3-.2-.5-.3-.8-.3-.3-.2-.7-.3-1-.6a2 2 0 0 1-.3-1c0-.5.2-1 .3-1.4-.4 0-.8 0-1.1-.2-.4 0-.7-.2-1-.3l-.7-.7c-.3-.3-.3-.6-.4-1v-.3h1.2c.5 0 1 0 1.6.2.6.2 1.2.5 1.6.9l.5-.3v-.8c.2-.8.6-1.6 1-2.2.1 0 .2-.2.3-.1l.4.2.5 1v1.9c.2 0 .3 0 .5.2l.3.4h.2l.3.8.3.2 1.3.4h.6c.2 0 .5 0 .5.2v.6l-.2.4c-.2.4-.5.6-.9.9 0 0-.2 0-.3.2 0 .3-.3.5-.5.7-.3.2-.5.3-.8.3h-1l.7 2.4a6.6 6.6 0 0 0 3.9-6.6 6.5 6.5 0 0 0-4.4-5.6 6.6 6.6 0 0 0-3.6-.1Zm9.3 2.5 1-.7a9.9 9.9 0 0 1 1 5.9l-1.2-.4a8 8 0 0 0-.8-4.8Zm20.3.4c.8 0 1.6 0 2.3.5.8.4 1.3 1.1 1.6 2a4 4 0 0 1-.2 2.4c-.4.8-1.1 1.4-2 1.7a3 3 0 0 1-2.3 0c-.8-.2-1.4-.7-1.9-1.4a3.5 3.5 0 0 1 .1-3.7C37 7.3 38 6.8 39 6.6Zm0 1.4c-.4 0-.8.4-1 .8a2 2 0 0 0 .3 2.8 2 2 0 0 0 1.9.3 2 2 0 0 0 1-.8 2 2 0 0 0 .2-1.7 2 2 0 0 0-.8-1.2A2 2 0 0 0 39 8Zm9.8-1.4c.7 0 1.5 0 2.2.4.6.3 1.2.8 1.5 1.5.5 1.1.4 2.6-.4 3.6a3.8 3.8 0 0 1-4.4 1c-.6-.3-1.1-.8-1.5-1.5a3 3 0 0 1-.3-2.3 3.3 3.3 0 0 1 2.9-2.7Zm0 1.4c-.4 0-.7.3-1 .6-.7.8-.6 2.1 0 2.8a2 2 0 0 0 2 .6c.5 0 1-.5 1.2-1 .5-.8.3-1.8-.3-2.5a2 2 0 0 0-1.8-.5ZM27.6 6.7h3.1c.7 0 1.3.2 1.8.6.4.4.6 1 .6 1.6 0 .5-.2 1.1-.5 1.5-.3.3-.6.4-1 .6l1.7 2.3h-1.7l-1.4-2.1H29v2.1h-1.5V6.7ZM29.1 8v2h1.4c.2 0 .5-.1.7-.3.5-.2.6-1 .2-1.3a1 1 0 0 0-.8-.4H29Zm26.7-1.3H59c.6 0 1.3.2 1.7.7.3.4.4 1 .3 1.5a2 2 0 0 1-.8 1l.8.5c.2.3.4.6.4.9 0 .4 0 .9-.3 1.2-.4.5-1 .7-1.4.8h-3.9V6.7ZM57.2 8v1.4h1.2c.3 0 .7 0 1-.2.2-.2.3-.6.1-.9-.1-.2-.5-.3-.7-.3h-1.6Zm0 2.6V12H59c.3 0 .7 0 .9-.3.1-.3 0-.7-.2-1l-.8-.1h-1.7Zm7.2 2.7V6.7h5V8h-3.6v1.3H69v1.3h-3V12h3.5v1.3h-5ZM72 6.7h5.5v1.4h-2v5.2H74V8h-2V6.7ZM.9 9.7 1 8.3l1.2.3v1.7c0 .9.1 1.7.4 2.5l-.1.2-1 .6a10 10 0 0 1-.6-3.3v-.6Zm18 3.4h.2l1 .3a9.6 9.6 0 0 1-3.7 4.8l-.6-1.1L17 16c.7-.8 1.3-1.7 1.7-2.8l.1-.1Z" fill="#EEAF0E"/>
  <path d="m2.5 15.4 1-.6c1 1.3 2.2 2.4 3.6 3L6.8 19a10 10 0 0 1-4.3-3.6ZM9 18.5c1.7.3 3.4.2 5-.4l.6 1a10 10 0 0 1-3.5.8h-.6c-.6 0-1.2 0-1.8-.2l.4-1.2Z" fill="#EEAF0E"/>
</svg>
