<svg width="92" height="16" fill="none" xmlns="http://www.w3.org/2000/svg">
  <path d="M10.2.3H3.8a3 3 0 0 0-2.2.9c-.6.6-1 1.4-1 2.2v1c0 1.2.9 2.3 2.2 3l.5.2V3.4a.4.4 0 0 1 .5-.5h6.4c.2 0 .3.1.3.2l.1.3v2h2.7v-2c0-.8-.3-1.6-1-2.2a3 3 0 0 0-2.1-1Zm1 7.7-.6-.3V12a.4.4 0 0 1-.4.4H3.8a.4.4 0 0 1-.5-.4V9.8H.7v2c0 1.8 1.4 3.2 3 3.2h6.5a3 3 0 0 0 2.2-.9c.6-.6.9-1.4.9-2.2v-1c0-1.3-.8-2.4-2.1-3Z" fill="#886CFF"/>
  <path d="M5.8 8.8c1 1 1.2 2.1 1.2 2.1s.1-.7.6-1.5l.5-.6c1-1 2.1-1.2 2.1-1.2s-.9-.1-1.7-.8A4.5 4.5 0 0 1 7 4.3s-.2.8-.7 1.6a4 4 0 0 1-.5.6c-.9 1-2 1.1-2 1.1a4.4 4.4 0 0 0 2 1.2Z" fill="#886CFF"/>
  <path d="M24.4 6.9 21 6.6c-1 0-1.4-.3-1.4-1.1 0-.9.4-1.2 1.5-1.2H24c1 0 1.3.4 1.4 1.2 0 .3.2.4.4.4H27c.3 0 .4-.1.4-.4-.1-2.1-1.2-3.2-3.5-3.2h-2.7c-2.6 0-3.5 1.1-3.5 3.2 0 2 .9 2.7 3.1 2.9l3.3.2c1 .1 1.4.4 1.4 1.2 0 .8-.4 1.2-1.5 1.2h-3c-.9 0-1.3-.4-1.4-1.3 0-.2-.1-.3-.3-.3h-1.4c-.2 0-.3.1-.3.4 0 2 1.1 3.2 3.5 3.2H24c2.6 0 3.6-1.2 3.6-3.2s-1-2.8-3.2-3Zm12.4-.2h-5.6V2.3h-2V13h2V8.5h5.6V13h2V2.3h-2v4.4ZM49 9.4c0 1.3-.4 1.5-1.4 1.5h-3.3c-1 0-1.4-.2-1.4-1.5v-7h-2.1v6.9c0 2.2 1 3.6 3.5 3.6h3.3c2.5 0 3.5-1.4 3.5-3.6v-7h-2v7Zm4 3.6h2.1V8.4h4.4V6.6H55V4.3h6.6v-2H53V13Zm9.9 0h2V8.4h4.4V6.6h-4.4V4.3h6.6v-2h-8.6V13ZM74.8 2.3h-2V13h8.4v-2h-6.4V2.3Zm16.4 2v-2h-8.9V13h8.9v-2h-6.8V8.5h4.5V6.6h-4.5V4.3h6.8Z" fill="#fff"/>
</svg>
