<svg width="43" height="21" fill="none" xmlns="http://www.w3.org/2000/svg">
  <path d="M39 17a5 5 0 0 0 3.5-1.5c.3-.5-.4-1.2-.6-1.2-.6.5-1.2 1.2-2.6 1.2-1.6 0-1.2-1.7-1.2-1.7s3 .4 4.3-1.8a3 3 0 0 0 .3-2c-.2-.5-1.1-1.2-2.5-1.1-1.8.1-4 2-4.4 4-.4 1.8.3 4.2 3.2 4.2Zm2-7.1c.2 0 .2.4.1 1 0 .6-1 2.2-2.8 2.2.2-1 1.5-3.2 2.6-3.2ZM2.9 6c0-2.8 1.8-4.3 5.2-4.3 2.4 0 2.8 1.5 2.8 2C10.9 4.8 9.3 6 9.3 6s.1.6 1.5.6c1.3 0 2.6-.8 2.6-3 0-2.5-2.7-3.6-5.3-3.6C6 0 .1.3.1 6c0 5 9.7 5.4 9.7 8.7 0 3.4-4 4.4-5.3 4.4-1.4 0-2-1-2-1.5 0-2.8 3-3.6 3-3.6 0-.2-.2-1.1-1.3-1.1-3 0-4 2.4-4 4.7 0 2 1.4 3.3 3.6 3.3 4.2 0 8.9-2 8.9-6.4 0-4.2-9.8-5.3-9.8-8.5Z" fill="#E2F1FF"/>
  <path d="M42.8 17.1h-.3c-.4.4-1.5 1.5-4 1.5-4.7 0-5.5-7.4-5.5-7.4s3.5-2.6 4-3.6c.6-1-1.1-1.3-1.1-1.3s-2.5 3-4.2 3.8c.1-1.3 1.4-4.2 1.5-5.9 0-1.6-2-1.2-2.4-1 0 .7-1.9 7.3-2.6 11-.4.6-1 1.3-1.5 1.3-.3 0-.4-.5-.4-1.3 0-1 .6-2.8.6-3.9 0-.7-.3-.7-.6-.7h-.5c-.8 0-.5-.7-1.2-.7-2 0-4.7 2.3-4.8 5.6a6 6 0 0 1-2.2 1c-.5 0-.7-.4-.7-.8 0-.8 1.2-5 1.2-5l2.2-.6c.5 0 .7-.1.8-.3l1-1.2c.2-.4 0-.8-.6-.8-.8 0-2.8.5-2.8.5l1-4.2h-.3c-.4 0-1 .1-1.4.3-.7.2-1.2 1-1.3 1.3L16 7.8l-4.4 1.5v.1s.4 1.7 1.3 1.7c.6 0 2.5-.8 2.5-.8s-1 3.8-1 5.1c0 .8.5 1.8 2 1.8 1.6 0 3-.8 3.7-1.3.4 1 1.3 1.2 2 1.2 1.4 0 2.6-1.1 2.7-1.3.2.5.6 1.3 1.7 1.3.5 0 1.1-.6 1.6-1.2v.4c.2 1.5 2.6.6 2.7.4 0-1.2 0-3.5.5-5 .6 5 3 8.3 7.2 8.3 2.3 0 3.5-.7 4-1.2a1.7 1.7 0 0 0 .4-1.7Zm-20.2-1.6c-2 0 .6-5.1 2.3-5.1 0 .6 0 5.1-2.3 5.1Z" fill="#E2F1FF"/>
</svg>
