<svg width="78" height="19" fill="none" xmlns="http://www.w3.org/2000/svg">
  <g clip-path="url(#a)">
    <path d="M32.5 5.8h-2c-.2 0-.3.1-.3.2v.7a3.4 3.4 0 0 0-2.7-1.1c-1.1 0-2.3.4-3.2 1.3a5 5 0 0 0-1.3 3.2c0 1.3.5 2.4 1.3 3.3.9.9 2 1.3 3.2 1.3 1.3 0 2-.4 2.7-1.1v.6c0 1.3-.8 2-2.2 2-1.4 0-1.7-.3-2.1-1h-.3l-1.8 1a.2.2 0 0 0 0 .2c.8 1.3 2.2 2 4.2 2 1.9 0 2.3-.3 3.3-1 .9-.7 1.3-1.8 1.3-3.2V6l-.1-.2Zm-2.3 4.3c0 1.4-1 2.3-2.3 2.3-1.4 0-2.4-1-2.4-2.3 0-1.3.2-1.2.7-1.6.4-.4 1-.6 1.7-.6a2.3 2.3 0 0 1 2.3 2.2Zm8.9-4.4A3 3 0 0 0 36.7 7V6s0-.2-.2-.2h-2c-.2 0-.2.1-.2.2v8.6l.1.2h2.1l.2-.2v-4.1c0-.8.3-1.4.8-1.7a3 3 0 0 1 1.7-.4h.1V5.6h-.2Zm10.4.1h-2.2l-.1.2v.7a3.5 3.5 0 0 0-2.8-1.1c-1.2 0-2.2.4-3 1.4-1 .9-1.4 2-1.4 3.3 0 1.3.5 2.4 1.3 3.3a4 4 0 0 0 3.1 1.4 4 4 0 0 0 2.8-1.1v.7l.1.1h2.2l.1-.1V6l-.1-.2Zm-2.3 4.5c0 .7-.3 1.3-.7 1.7-.4.4-1 .7-1.7.7-.6 0-1.2-.3-1.6-.7-.5-.4-.7-1-.7-1.7s.2-1.3.7-1.7a2 2 0 0 1 1.6-.7c.7 0 1.3.2 1.7.7.4.4.7 1 .7 1.7Zm19-4.7c-1.4 0-2.5.4-3.4 1.3-.9 1-1.3 2-1.3 3.4 0 1.3.4 2.5 1.3 3.4 1 .8 2.1 1.3 3.6 1.3 1.4 0 3-.6 3.8-1.8V13l-1.7-1h-.2c-.5.5-1 .8-1.9.8-1.3 0-2-.5-2.3-1.5h6.4l.2-.1v-1c0-1.2-.4-2.3-1.2-3.3-.9-.9-2-1.3-3.3-1.3ZM64 9.4c.3-1 1.1-1.6 2.2-1.6a2 2 0 0 1 2 1.6H64Z" fill="#fff"/>
    <path d="M18.3 5.4c-1.2-.2-2.2 0-3 .6l.2-.7v-.1h-.2l-2-.4H13v.1l-2 11.9v.2l2.2.4.2-.2.7-4.1c.5.8 1.4 1.4 2.5 1.6a4 4 0 0 0 3.3-.8c1-.8 1.6-1.8 1.9-3.1.2-1.3 0-2.5-.7-3.5a4 4 0 0 0-2.8-2Zm1 5c0 .6-.4 1.2-1 1.5-.4.4-1 .5-1.7.4a2.4 2.4 0 0 1-1.9-2.7 2.3 2.3 0 0 1 2.3-2h.4c.7.1 1.2.4 1.6 1 .3.5.5 1 .3 1.7Zm-10-7.1 2.8 1h.1v-.1l.5-2.2-.1-.2L7.4 0h-.2L3.6 3.2v.2L4 5.7V6h.2l2.4-2.2 1.1 6a2.2 2.2 0 0 1-1 2.3 2 2 0 0 1-2.1 0c-.6-.2-1-.8-1.2-1.5l-.7-4.2-.1-.1h-.1l-2.3.3v.1l-.1.1.7 4.2a4.8 4.8 0 0 0 5.6 3.9 4.8 4.8 0 0 0 3.9-5.6l-1-5.9Z" fill="#82E1FF"/>
    <path d="m60.2 3.1-2-.7H58l-.1.1v4.2A3.5 3.5 0 0 0 55 5.6c-1.1 0-2.2.4-3 1.4-1 .9-1.3 2-1.3 3.3 0 1.3.4 2.4 1.2 3.3A4 4 0 0 0 55 15c1.2 0 2.1-.4 2.8-1.1v.7s0 .2.2.2h2c.2 0 .2-.1.2-.2V3ZM58 10.3c0 .7-.2 1.3-.7 1.7a2.3 2.3 0 0 1-3.4 0c-.4-.4-.6-1-.6-1.7s.2-1.3.7-1.7c.4-.5 1-.7 1.7-.7a2 2 0 0 1 1.6.7c.5.4.7 1 .7 1.7Zm19-4.6A3 3 0 0 0 74.6 7V6c0-.1 0-.2-.2-.2h-2c-.2 0-.2.1-.2.2v8.6l.1.1h2.1l.2-.1v-4.1c0-.8.3-1.4.8-1.7a3 3 0 0 1 1.7-.4l.1-.1V5.7Z" fill="#fff"/>
  </g>
  <defs>
    <clipPath id="a">
      <path fill="#fff" transform="translate(.2)" d="M0 0h77v18.5H0z"/>
    </clipPath>
  </defs>
</svg>
